<?xml version="1.0" standalone="no"?>
<!DOCTYPE svg PUBLIC "-//W3C//DTD SVG 20010904//EN"
 "http://www.w3.org/TR/2001/REC-SVG-20010904/DTD/svg10.dtd">
<svg version="1.0" xmlns="http://www.w3.org/2000/svg"
 width="512.000000pt" height="512.000000pt" viewBox="0 0 512.000000 512.000000"
 preserveAspectRatio="xMidYMid meet">

<g transform="translate(0.000000,512.000000) scale(0.100000,-0.100000)"
fill="#000000" stroke="none">
<path d="M2321 4789 c-423 -47 -835 -219 -1166 -486 -438 -353 -727 -862 -809
-1424 -9 -59 -16 -118 -16 -133 l0 -26 723 0 723 0 13 53 c19 76 82 202 141
279 63 83 176 175 272 222 260 128 563 110 801 -48 154 -102 285 -283 328
-453 l13 -53 723 0 c686 0 723 1 723 18 0 10 -5 56 -10 102 -60 481 -274 926
-615 1279 -338 349 -758 570 -1245 653 -134 23 -465 32 -599 17z"/>
<path d="M2441 3024 c-253 -68 -410 -331 -346 -579 67 -256 329 -415 580 -350
256 67 415 329 350 578 -67 259 -333 419 -584 351z"/>
<path d="M330 2382 c0 -10 5 -55 10 -101 61 -482 273 -925 610 -1275 189 -195
380 -335 625 -456 328 -163 689 -240 1060 -227 333 11 610 80 910 227 240 117
432 256 620 451 334 345 540 765 609 1240 9 59 16 118 16 133 l0 26 -723 0
-723 0 -13 -52 c-31 -123 -112 -260 -212 -358 -99 -98 -215 -164 -359 -206
-91 -26 -308 -26 -400 0 -167 47 -334 158 -430 284 -59 77 -122 203 -141 280
l-13 52 -723 0 c-686 0 -723 -1 -723 -18z"/>
</g>
</svg>
